<?xml version="1.0" standalone="no"?>
<!DOCTYPE svg PUBLIC "-//W3C//DTD SVG 20010904//EN"
 "http://www.w3.org/TR/2001/REC-SVG-20010904/DTD/svg10.dtd">
<svg version="1.0" xmlns="http://www.w3.org/2000/svg"
 width="512.000000pt" height="447.000000pt" viewBox="0 0 512.000000 447.000000"
 preserveAspectRatio="xMidYMid meet">
<metadata>
Created by potrace 1.16, written by Peter Selinger 2001-2019
</metadata>
<g transform="translate(0.000000,447.000000) scale(0.100000,-0.100000)"
fill="#000000" stroke="none">
<path d="M50 2225 l0 -2185 2505 0 2505 0 0 2185 0 2185 -2505 0 -2505 0 0
-2185z m990 1680 l0 -495 -490 0 -490 0 0 495 0 495 490 0 490 0 0 -495z m580
0 l0 -495 -285 0 -285 0 0 495 0 495 285 0 285 0 0 -495z m2000 0 l0 -495
-995 0 -995 0 0 495 0 495 995 0 995 0 0 -495z m690 0 l0 -495 -340 0 -340 0
0 495 0 495 340 0 340 0 0 -495z m740 0 l0 -495 -365 0 -365 0 0 495 0 495
365 0 365 0 0 -495z m-4010 -945 l0 -440 -490 0 -490 0 0 440 0 440 490 0 490
0 0 -440z m580 0 l0 -440 -285 0 -285 0 0 440 0 440 285 0 285 0 0 -440z
m2000 0 l0 -440 -995 0 -995 0 0 440 0 440 995 0 995 0 0 -440z m690 0 l0
-440 -340 0 -340 0 0 440 0 440 340 0 340 0 0 -440z m740 0 l0 -440 -365 0
-365 0 0 440 0 440 365 0 365 0 0 -440z m-4010 -1235 l0 -785 -490 0 -490 0 0
785 0 785 490 0 490 0 0 -785z m580 0 l0 -785 -285 0 -285 0 0 785 0 785 285
0 285 0 0 -785z m2000 0 l0 -785 -995 0 -995 0 0 785 0 785 995 0 995 0 0
-785z m690 0 l0 -785 -340 0 -340 0 0 785 0 785 340 0 340 0 0 -785z m740 0
l0 -785 -365 0 -365 0 0 785 0 785 365 0 365 0 0 -785z m-4010 -1235 l0 -440
-490 0 -490 0 0 440 0 440 490 0 490 0 0 -440z m580 0 l0 -440 -285 0 -285 0
0 440 0 440 285 0 285 0 0 -440z m2000 0 l0 -440 -995 0 -995 0 0 440 0 440
995 0 995 0 0 -440z m690 0 l0 -440 -340 0 -340 0 0 440 0 440 340 0 340 0 0
-440z m740 0 l0 -440 -365 0 -365 0 0 440 0 440 365 0 365 0 0 -440z"/>
</g>
</svg>
