<?xml version="1.0" standalone="no"?>
<!DOCTYPE svg PUBLIC "-//W3C//DTD SVG 20010904//EN"
 "http://www.w3.org/TR/2001/REC-SVG-20010904/DTD/svg10.dtd">
<svg version="1.0" xmlns="http://www.w3.org/2000/svg"
 width="800.000000pt" height="2209.000000pt" viewBox="0 0 800.000000 2209.000000"
 preserveAspectRatio="xMidYMid meet">
<metadata>
Created by potrace 1.16, written by Peter Selinger 2001-2019
</metadata>
<g transform="translate(0.000000,2209.000000) scale(0.100000,-0.100000)"
fill="#000000" stroke="none">
<path d="M1560 21850 l0 -120 60 0 c67 0 100 21 100 64 0 26 -23 56 -43 56 -6
0 -1 7 11 16 14 10 22 26 22 44 0 40 -32 60 -97 60 l-53 0 0 -120z"/>
<path d="M255 21885 c-35 -34 -35 -96 0 -130 53 -54 135 -15 135 65 0 51 -34
90 -80 90 -19 0 -40 -9 -55 -25z"/>
<path d="M440 21820 c0 -73 3 -90 15 -90 12 0 15 14 15 70 0 59 3 71 20 80 12
6 30 8 40 5 18 -6 20 -16 20 -81 0 -59 3 -74 15 -74 12 0 15 14 15 63 0 49 4
68 18 80 45 41 72 10 72 -82 0 -36 4 -61 10 -61 7 0 10 30 8 82 -3 81 -4 83
-31 93 -22 7 -35 6 -57 -7 -25 -14 -31 -14 -41 -2 -14 17 -43 18 -72 3 -16 -9
-22 -9 -25 0 -2 6 -8 11 -13 11 -5 0 -9 -40 -9 -90z"/>
<path d="M750 21820 c0 -73 3 -90 15 -90 12 0 15 14 15 70 0 59 3 71 20 80 12
6 30 8 40 5 18 -6 20 -16 20 -81 0 -59 3 -74 15 -74 12 0 15 14 15 63 0 49 4
68 18 80 45 41 72 10 72 -82 0 -36 4 -61 10 -61 7 0 10 30 8 82 -3 81 -4 83
-31 93 -22 7 -35 6 -57 -7 -25 -14 -31 -14 -41 -2 -14 17 -43 18 -72 3 -16 -9
-22 -9 -25 0 -2 6 -8 11 -13 11 -5 0 -9 -40 -9 -90z"/>
<path d="M1083 21895 c-28 -20 -39 -76 -23 -116 22 -52 77 -65 124 -28 22 17
26 28 26 69 0 41 -4 52 -26 69 -32 25 -71 27 -101 6z"/>
<path d="M1793 21903 c-24 -9 -13 -25 13 -19 36 9 64 -2 64 -25 0 -15 -7 -19
-33 -19 -45 0 -77 -25 -77 -59 0 -48 43 -66 93 -40 16 9 22 9 25 0 2 -6 8 -11
13 -11 16 0 11 133 -7 158 -15 21 -59 29 -91 15z"/>
<path d="M2138 21900 c-27 -16 -41 -74 -28 -114 15 -46 73 -69 124 -50 32 12
16 26 -23 19 -32 -5 -43 -3 -60 14 -38 38 -28 51 39 51 57 0 60 1 60 25 0 50
-65 82 -112 55z"/>
<path d="M5000 13655 c0 -42 -2 -45 -19 -35 -54 29 -111 -12 -111 -80 0 -68
57 -109 111 -80 13 7 19 7 19 0 0 -5 7 -10 15 -10 13 0 15 21 15 125 0 104 -2
125 -15 125 -11 0 -15 -12 -15 -45z"/>
<path d="M30 13570 c0 -100 3 -120 15 -120 12 0 15 18 15 98 l1 97 62 -97 c87
-136 97 -133 97 22 0 99 -3 120 -15 120 -11 0 -15 -19 -17 -92 l-3 -92 -60 92
c-85 129 -95 126 -95 -28z"/>
<path d="M2410 13678 c0 -7 13 -60 28 -118 37 -135 51 -140 81 -28 13 46 26
89 30 96 4 8 19 -26 36 -82 40 -136 49 -131 95 51 24 96 23 93 7 93 -8 0 -22
-36 -37 -97 -19 -81 -25 -94 -31 -73 -4 14 -18 58 -30 98 -29 100 -45 94 -79
-27 l-27 -95 -24 97 c-14 61 -28 97 -36 97 -7 0 -13 -6 -13 -12z"/>
<path d="M303 13623 c-24 -9 -13 -25 13 -19 35 9 64 -2 64 -23 0 -14 -10 -20
-40 -24 -52 -7 -70 -22 -70 -58 0 -40 38 -58 83 -41 21 8 33 9 35 2 2 -5 8
-10 13 -10 5 0 9 33 9 73 0 59 -4 77 -18 90 -18 16 -63 21 -89 10z"/>
<path d="M470 13540 c0 -53 4 -90 10 -90 6 0 10 26 10 58 0 62 19 102 49 102
31 0 41 -22 41 -92 0 -54 3 -68 15 -68 12 0 15 14 15 70 0 65 2 71 25 82 41
18 55 -3 55 -83 0 -55 3 -69 15 -69 24 0 21 141 -3 163 -22 20 -66 22 -84 4
-10 -11 -17 -11 -40 2 -22 13 -33 14 -57 4 -17 -6 -31 -7 -31 -2 0 5 -4 9 -10
9 -6 0 -10 -37 -10 -90z"/>
<path d="M796 13609 c-22 -17 -26 -28 -26 -69 0 -41 4 -52 26 -69 26 -21 67
-27 98 -15 28 11 18 27 -13 21 -41 -8 -67 1 -80 29 -6 14 -11 27 -11 29 0 3
30 5 66 5 l66 0 -6 28 c-14 58 -72 79 -120 41z"/>
<path d="M1243 13615 c-28 -20 -39 -76 -23 -116 22 -52 77 -65 124 -28 22 17
26 28 26 69 0 41 -4 52 -26 69 -32 25 -71 27 -101 6z"/>
<path d="M1560 13540 c0 -73 3 -90 15 -90 12 0 15 14 15 70 0 65 2 71 25 82
41 18 55 -3 55 -83 0 -55 3 -69 15 -69 12 0 15 14 15 64 0 64 14 96 43 96 31
-1 41 -21 45 -89 6 -94 22 -91 22 3 0 54 -4 79 -16 90 -19 20 -53 20 -81 1
-18 -13 -22 -13 -33 0 -15 18 -61 20 -79 3 -11 -10 -14 -10 -18 0 -13 35 -23
2 -23 -78z"/>
<path d="M2183 13623 c-26 -10 -12 -24 17 -18 33 7 60 -7 60 -31 0 -9 -11 -14
-30 -14 -69 0 -105 -41 -76 -85 18 -27 53 -33 86 -15 13 7 21 7 25 0 16 -26
25 -4 25 58 0 83 -17 112 -63 111 -18 0 -38 -3 -44 -6z"/>
<path d="M2972 13623 c-16 -6 -42 -56 -42 -82 0 -33 21 -68 47 -80 35 -16 78
-14 94 5 12 15 10 16 -28 10 -34 -6 -45 -4 -62 13 -38 38 -28 51 39 51 57 0
60 1 60 25 0 47 -57 79 -108 58z"/>
<path d="M3286 13609 c-22 -17 -26 -28 -26 -69 0 -41 4 -52 26 -69 26 -21 67
-27 98 -15 28 11 18 27 -13 21 -41 -8 -67 1 -80 29 -6 14 -11 27 -11 29 0 3
30 5 66 5 l66 0 -6 28 c-14 58 -72 79 -120 41z"/>
<path d="M4283 13604 c-22 -22 -25 -32 -20 -72 8 -77 73 -107 131 -61 21 17
26 29 26 65 0 85 -80 125 -137 68z"/>
<path d="M530 13195 c0 -44 -1 -44 -24 -34 -14 7 -36 9 -51 5 -54 -14 -70
-128 -22 -161 26 -18 68 -19 86 -2 11 10 14 10 18 0 3 -7 9 -13 14 -13 5 0 9
56 9 125 0 104 -2 125 -15 125 -11 0 -15 -12 -15 -45z"/>
<path d="M1792 13195 c5 -42 -3 -58 -17 -35 -11 17 -64 11 -85 -10 -15 -15
-20 -33 -20 -70 0 -76 50 -112 111 -80 13 7 19 7 19 0 0 -5 5 -10 10 -10 6 0
10 48 10 125 0 109 -2 125 -16 125 -14 0 -16 -8 -12 -45z"/>
<path d="M2600 13195 c0 -42 -11 -58 -25 -35 -11 17 -64 11 -85 -10 -15 -15
-20 -33 -20 -70 0 -76 50 -112 111 -80 13 7 19 7 19 0 0 -5 5 -10 10 -10 6 0
10 48 10 125 0 77 -4 125 -10 125 -5 0 -10 -20 -10 -45z"/>
<path d="M4690 13195 c0 -42 -2 -45 -19 -35 -58 30 -111 -9 -111 -81 0 -73 52
-110 111 -79 13 7 19 7 19 0 0 -5 5 -10 10 -10 6 0 10 48 10 125 0 77 -4 125
-10 125 -5 0 -10 -20 -10 -45z"/>
<path d="M5420 13110 c0 -145 18 -163 22 -23 l3 97 62 -97 c84 -131 93 -129
93 23 0 145 -18 163 -22 23 l-3 -97 -64 97 c-35 53 -70 97 -77 97 -11 0 -14
-25 -14 -120z"/>
<path d="M5879 13202 c-32 -28 -34 -35 -34 -92 0 -57 2 -64 34 -92 30 -26 39
-30 78 -25 53 6 79 28 95 79 8 29 8 47 0 76 -16 51 -42 73 -95 79 -39 5 -48 1
-78 -25z m98 -2 c70 -25 72 -155 2 -179 -39 -13 -83 3 -98 35 -25 55 -6 127
38 143 14 5 26 10 27 10 1 1 15 -4 31 -9z"/>
<path d="M6110 13110 c0 -100 3 -120 15 -120 12 0 15 13 15 55 l0 55 60 0 60
0 0 -55 c0 -42 3 -55 15 -55 13 0 15 20 15 120 0 100 -2 120 -15 120 -12 0
-15 -13 -15 -55 l0 -55 -60 0 -60 0 0 55 c0 42 -3 55 -15 55 -12 0 -15 -20
-15 -120z"/>
<path d="M6500 13223 c-53 -20 -82 -93 -60 -157 15 -47 42 -68 93 -73 39 -5
48 -1 78 25 32 28 34 35 34 92 0 57 -2 64 -33 91 -31 28 -73 36 -112 22z m112
-62 c13 -34 4 -109 -15 -128 -8 -8 -31 -15 -52 -16 -73 -2 -113 94 -65 156 35
45 112 38 132 -12z"/>
<path d="M230 13150 c-80 -80 20 -211 106 -137 38 33 38 101 0 134 -33 28 -79
30 -106 3z"/>
<path d="M910 13080 c0 -53 4 -90 10 -90 6 0 10 27 10 60 0 47 4 64 20 80 44
44 70 18 70 -72 0 -54 3 -68 15 -68 12 0 15 14 15 70 0 65 2 71 25 82 41 18
55 -3 55 -83 0 -55 3 -69 15 -69 24 0 21 141 -3 163 -23 21 -65 22 -81 3 -10
-12 -16 -12 -41 2 -24 14 -34 15 -59 5 -17 -6 -31 -7 -31 -2 0 5 -4 9 -10 9
-6 0 -10 -37 -10 -90z"/>
<path d="M2036 13149 c-22 -17 -26 -28 -26 -69 0 -41 4 -52 26 -69 52 -41 118
-18 130 44 17 90 -62 147 -130 94z"/>
<path d="M2695 13145 c-53 -53 -18 -155 54 -155 36 0 61 9 61 22 0 5 -13 7
-30 3 -37 -8 -80 16 -80 45 0 18 7 20 60 20 56 0 60 1 60 23 0 31 -40 67 -74
67 -15 0 -37 -10 -51 -25z"/>
<path d="M3233 13163 c-24 -9 -13 -25 13 -19 35 9 64 -2 64 -23 0 -14 -10 -20
-40 -24 -52 -7 -70 -22 -70 -58 0 -40 38 -58 83 -41 21 8 33 9 35 2 2 -5 8
-10 13 -10 5 0 9 33 9 74 0 54 -4 79 -16 90 -15 15 -65 20 -91 9z"/>
<path d="M4386 13149 c-22 -17 -26 -28 -26 -69 0 -41 4 -52 26 -69 52 -41 118
-18 130 44 17 90 -62 147 -130 94z"/>
<path d="M4793 13163 c-24 -9 -13 -25 13 -19 35 9 64 -2 64 -23 0 -14 -10 -20
-40 -24 -52 -7 -70 -22 -70 -58 0 -40 38 -58 83 -41 21 8 33 9 35 2 2 -5 8
-10 13 -10 5 0 9 33 9 74 0 54 -4 79 -16 90 -15 15 -65 20 -91 9z"/>
<path d="M5688 13163 c-36 -9 -18 -25 21 -18 33 5 41 3 50 -14 15 -28 16 -28
-34 -33 -53 -6 -75 -22 -75 -54 0 -45 66 -73 99 -41 11 10 14 10 18 0 12 -34
23 -5 23 61 0 98 -23 120 -102 99z"/>
<path d="M6885 13145 c-53 -53 -18 -155 54 -155 36 0 61 9 61 22 0 6 -13 8
-32 4 -38 -7 -78 15 -78 44 0 18 7 20 60 20 54 0 60 2 60 20 0 29 -44 70 -75
70 -14 0 -37 -11 -50 -25z"/>
<path d="M290 12690 c-38 -38 -38 -102 1 -141 15 -15 30 -19 61 -17 23 2 43 9
46 16 3 10 -4 12 -31 7 -28 -6 -39 -3 -56 14 -38 38 -28 51 39 51 57 0 60 1
60 25 0 57 -79 86 -120 45z"/>
<path d="M483 12703 c-24 -9 -13 -25 13 -19 36 9 64 -2 64 -25 0 -15 -7 -19
-33 -19 -45 0 -77 -25 -77 -59 0 -48 43 -66 93 -40 16 9 22 9 25 0 2 -6 8 -11
13 -11 16 0 11 133 -7 158 -15 21 -59 29 -91 15z"/>
<path d="M865 12685 c-53 -53 -18 -155 54 -155 36 0 61 9 61 22 0 6 -13 8 -32
4 -38 -7 -78 15 -78 44 0 18 7 20 60 20 52 0 60 3 60 19 0 10 -9 30 -21 45
-27 34 -71 35 -104 1z"/>
<path d="M2215 12685 c-53 -53 -18 -155 54 -155 36 0 61 9 61 22 0 6 -13 8
-32 4 -38 -7 -78 15 -78 44 0 18 7 20 61 20 l61 0 -6 28 c-15 60 -79 80 -121
37z"/>
<path d="M300 12195 c0 -69 4 -125 9 -125 5 0 11 6 14 13 4 10 7 10 18 0 20
-19 67 -15 89 7 15 15 20 33 20 70 0 37 -5 55 -20 70 -21 21 -74 27 -85 10
-14 -23 -22 -7 -17 35 4 37 2 45 -12 45 -14 0 -16 -16 -16 -125z"/>
<path d="M138 12243 c-36 -9 -18 -25 21 -18 33 5 41 3 50 -14 15 -28 16 -28
-34 -33 -53 -6 -75 -22 -75 -54 0 -45 66 -73 99 -41 11 10 14 10 18 0 13 -35
23 -5 23 67 0 68 -3 81 -19 90 -20 10 -52 11 -83 3z"/>
<path d="M1842 11355 c5 -42 -3 -58 -17 -35 -11 17 -64 11 -85 -10 -15 -15
-20 -33 -20 -70 0 -76 50 -112 111 -80 13 7 19 7 19 0 0 -5 5 -10 10 -10 6 0
10 48 10 125 0 109 -2 125 -16 125 -14 0 -16 -8 -12 -45z"/>
<path d="M2650 11355 c0 -42 -11 -58 -25 -35 -11 17 -64 11 -85 -10 -15 -15
-20 -33 -20 -70 0 -76 50 -112 111 -80 13 7 19 7 19 0 0 -5 5 -10 10 -10 6 0
10 48 10 125 0 77 -4 125 -10 125 -5 0 -10 -20 -10 -45z"/>
<path d="M3541 11377 c-33 -20 -50 -55 -51 -105 0 -82 52 -131 126 -119 47 8
71 30 86 79 13 45 -1 105 -32 133 -25 23 -98 30 -129 12z m114 -37 c22 -25 29
-89 13 -120 -28 -53 -112 -58 -138 -10 -11 21 -13 73 -3 109 12 46 94 59 128
21z"/>
<path d="M3760 11270 c0 -100 3 -120 15 -120 12 0 15 13 15 55 l0 55 60 0 60
0 0 -55 c0 -42 3 -55 15 -55 13 0 15 20 15 120 0 100 -2 120 -15 120 -12 0
-15 -13 -15 -55 l0 -55 -60 0 -60 0 0 55 c0 42 -3 55 -15 55 -12 0 -15 -20
-15 -120z"/>
<path d="M263 11323 c-24 -9 -13 -25 13 -19 35 9 64 -2 64 -23 0 -14 -10 -20
-40 -24 -52 -7 -70 -22 -70 -58 0 -40 38 -58 83 -41 21 8 33 9 35 2 2 -5 8
-10 13 -10 5 0 9 33 9 73 0 59 -4 77 -18 90 -18 16 -63 21 -89 10z"/>
<path d="M960 11240 c0 -53 4 -90 10 -90 6 0 10 27 10 60 0 47 4 64 20 80 44
44 70 18 70 -72 0 -54 3 -68 15 -68 12 0 15 14 15 70 0 65 2 71 25 82 41 18
55 -3 55 -83 0 -55 3 -69 15 -69 24 0 21 141 -3 163 -23 21 -65 22 -81 3 -10
-12 -16 -12 -41 2 -24 14 -34 15 -59 5 -17 -6 -31 -7 -31 -2 0 5 -4 9 -10 9
-6 0 -10 -37 -10 -90z"/>
<path d="M2086 11309 c-22 -17 -26 -28 -26 -69 0 -41 4 -52 26 -69 52 -41 118
-18 130 44 17 90 -62 147 -130 94z"/>
<path d="M2745 11305 c-53 -53 -18 -155 54 -155 36 0 61 9 61 22 0 5 -13 7
-30 3 -37 -8 -80 16 -80 45 0 18 7 20 60 20 56 0 60 1 60 23 0 31 -40 67 -74
67 -15 0 -37 -10 -51 -25z"/>
<path d="M3238 11323 c-36 -9 -18 -25 21 -18 33 5 41 3 50 -14 15 -28 16 -28
-34 -33 -53 -6 -75 -22 -75 -54 0 -45 66 -73 99 -41 11 10 14 10 18 0 13 -35
23 -5 23 67 0 68 -3 81 -19 90 -20 10 -52 11 -83 3z"/>
<path d="M5226 11309 c-22 -17 -26 -28 -26 -69 0 -41 4 -52 26 -69 33 -26 75
-27 105 -2 20 16 24 29 24 71 0 42 -4 55 -24 71 -30 25 -72 24 -105 -2z"/>
<path d="M5830 11240 c0 -73 3 -90 15 -90 12 0 15 14 15 70 0 59 3 71 20 80
12 6 30 8 40 5 18 -6 20 -16 20 -81 0 -59 3 -74 15 -74 12 0 15 14 15 63 0 49
4 68 18 80 45 41 72 10 72 -82 0 -36 4 -61 10 -61 7 0 10 30 8 82 -3 81 -4 83
-31 93 -22 7 -35 6 -57 -7 -25 -14 -31 -14 -41 -2 -14 17 -43 18 -72 3 -16 -9
-22 -9 -25 0 -2 6 -8 11 -13 11 -5 0 -9 -40 -9 -90z"/>
<path d="M6159 11311 c-20 -16 -24 -29 -24 -71 0 -43 4 -55 24 -71 28 -23 101
-23 109 0 3 10 -3 11 -27 6 -38 -8 -81 16 -81 45 0 18 7 20 60 20 56 0 60 1
60 23 0 31 -39 67 -72 67 -14 0 -36 -9 -49 -19z"/>
<path d="M200 10780 c0 -53 4 -90 10 -90 6 0 10 22 10 49 0 63 13 97 40 106
37 12 50 -11 50 -86 0 -55 3 -69 15 -69 12 0 15 14 15 70 0 59 3 71 20 80 12
6 30 8 40 5 18 -6 20 -16 20 -81 0 -59 3 -74 15 -74 22 0 21 142 -1 164 -20
20 -68 21 -84 1 -12 -14 -15 -14 -30 0 -20 18 -61 20 -79 3 -11 -10 -14 -10
-18 0 -13 35 -23 2 -23 -78z"/>
<path d="M525 10845 c-53 -53 -18 -155 54 -155 36 0 61 9 61 22 0 6 -13 8 -32
4 -38 -7 -78 15 -78 44 0 18 7 20 60 20 54 0 60 2 60 20 0 29 -44 70 -75 70
-14 0 -37 -11 -50 -25z"/>
<path d="M676 10843 c44 -176 60 -190 96 -83 l24 72 23 -72 c34 -108 51 -93
95 83 5 20 3 27 -8 27 -9 0 -20 -25 -32 -72 l-17 -73 -25 73 c-13 41 -29 72
-37 72 -8 0 -24 -31 -37 -72 l-25 -73 -17 73 c-12 47 -23 72 -32 72 -11 0 -13
-7 -8 -27z"/>
<path d="M978 10863 c-36 -9 -18 -25 21 -18 33 5 41 3 50 -14 15 -28 16 -28
-34 -33 -53 -6 -75 -22 -75 -54 0 -45 66 -73 99 -41 11 10 14 10 18 0 13 -35
23 -5 23 67 0 68 -3 81 -19 90 -20 10 -52 11 -83 3z"/>
<path d="M1275 10845 c-53 -53 -18 -155 54 -155 36 0 61 9 61 22 0 6 -13 8
-32 4 -38 -7 -78 15 -78 44 0 18 7 20 61 20 l61 0 -6 28 c-15 60 -79 80 -121
37z"/>
<path d="M2510 9973 c0 -37 -3 -44 -12 -35 -15 15 -53 16 -78 2 -29 -15 -44
-73 -30 -115 17 -51 76 -74 109 -42 11 10 14 10 18 0 3 -7 9 -13 14 -13 5 0 9
56 9 125 0 104 -2 125 -15 125 -11 0 -15 -12 -15 -47z"/>
<path d="M6170 9976 l0 -44 -30 11 c-89 34 -141 -116 -58 -163 22 -12 33 -12
58 -3 16 6 30 7 30 2 0 -5 7 -9 15 -9 13 0 15 21 15 125 0 104 -2 125 -15 125
-11 0 -15 -12 -15 -44z"/>
<path d="M30 9890 c0 -99 3 -120 15 -120 11 0 15 20 17 98 l3 97 35 -95 c21
-57 41 -95 49 -95 8 0 28 38 50 95 l36 95 3 -97 c2 -78 6 -98 17 -98 12 0 15
21 15 121 0 119 0 120 -22 117 -19 -2 -29 -20 -58 -95 -19 -51 -37 -93 -40
-93 -3 0 -21 43 -40 95 -29 82 -37 95 -57 95 -23 0 -23 -1 -23 -120z"/>
<path d="M4930 9890 c0 -148 18 -162 22 -17 l3 102 39 -102 c21 -57 44 -103
50 -103 6 0 29 46 51 103 l40 102 3 -102 c4 -145 22 -131 22 17 0 111 -1 120
-19 120 -15 0 -27 -21 -56 -95 -20 -52 -38 -95 -40 -95 -1 0 -19 43 -40 95
-29 74 -41 95 -56 95 -18 0 -19 -8 -19 -120z"/>
<path d="M5451 9997 c-33 -20 -50 -55 -51 -105 0 -83 50 -131 126 -119 47 8
71 30 86 79 13 45 -1 105 -32 133 -25 23 -98 30 -129 12z m114 -37 c9 -10 19
-36 21 -57 9 -73 -43 -123 -105 -102 -38 13 -51 35 -51 88 0 54 8 71 42 86 36
15 71 9 93 -15z"/>
<path d="M353 9943 c-24 -9 -13 -25 13 -19 35 9 64 -2 64 -23 0 -14 -10 -20
-40 -24 -52 -7 -70 -22 -70 -58 0 -40 38 -58 83 -41 21 8 33 9 35 2 2 -5 8
-10 13 -10 5 0 9 33 9 73 0 59 -4 77 -18 90 -18 16 -63 21 -89 10z"/>
<path d="M527 9932 c-18 -20 -23 -67 -9 -76 15 -9 6 -74 -12 -91 -22 -22 -20
-41 6 -59 45 -32 133 -13 144 31 9 33 -12 53 -55 53 -20 0 -42 4 -50 9 -19 12
-4 31 25 31 37 0 67 36 60 71 -4 22 -2 29 9 29 8 0 15 5 15 10 0 6 -26 10 -58
10 -44 0 -63 -5 -75 -18z"/>
<path d="M932 9943 c-16 -6 -42 -56 -42 -82 0 -66 70 -110 134 -85 32 12 16
26 -23 19 -32 -5 -43 -3 -60 14 -38 38 -28 51 39 51 57 0 60 1 60 25 0 47 -57
79 -108 58z"/>
<path d="M1540 9860 c0 -53 4 -90 10 -90 6 0 10 22 10 49 0 63 13 97 40 106
37 12 50 -11 50 -86 0 -55 3 -69 15 -69 12 0 15 14 15 70 0 59 3 71 20 80 12
6 30 8 40 5 18 -6 20 -16 20 -81 0 -59 3 -74 15 -74 24 0 21 141 -3 163 -23
21 -60 22 -82 2 -15 -14 -18 -14 -30 0 -15 18 -61 20 -79 3 -11 -10 -14 -10
-18 0 -13 35 -23 2 -23 -78z"/>
<path d="M1958 9936 c-44 -33 -44 -112 0 -146 47 -38 103 -22 122 35 13 41 2
89 -27 111 -23 17 -73 17 -95 0z"/>
<path d="M2615 9925 c-53 -53 -18 -155 54 -155 36 0 61 9 61 22 0 6 -13 8 -32
4 -38 -7 -78 15 -78 44 0 18 7 20 60 20 54 0 60 2 60 20 0 29 -44 70 -75 70
-14 0 -37 -11 -50 -25z"/>
<path d="M2970 9860 c0 -73 3 -90 15 -90 12 0 15 14 15 70 0 59 3 71 20 80 12
6 30 8 40 5 18 -6 20 -16 20 -81 0 -59 3 -74 15 -74 12 0 15 14 15 63 0 49 4
68 18 80 43 39 72 7 72 -79 0 -38 4 -64 10 -64 7 0 10 30 8 82 -3 81 -4 83
-31 93 -22 7 -35 6 -57 -7 -25 -14 -31 -14 -41 -2 -14 17 -43 18 -72 3 -16 -9
-22 -9 -25 0 -2 6 -8 11 -13 11 -5 0 -9 -40 -9 -90z"/>
<path d="M3303 9943 c-24 -9 -13 -25 13 -19 35 9 64 -2 64 -23 0 -14 -10 -20
-40 -24 -52 -7 -70 -22 -70 -58 0 -40 38 -58 83 -41 21 8 33 9 35 2 2 -5 8
-10 13 -10 5 0 9 33 9 73 0 59 -4 77 -18 90 -18 16 -63 21 -89 10z"/>
<path d="M3477 9932 c-18 -20 -23 -67 -9 -76 15 -9 6 -74 -12 -91 -21 -21 -20
-31 4 -55 37 -37 135 -19 146 27 9 33 -12 53 -55 53 -20 0 -42 4 -50 9 -19 12
-4 31 25 31 37 0 67 36 60 71 -4 22 -2 29 9 29 8 0 15 5 15 10 0 6 -26 10 -58
10 -44 0 -63 -5 -75 -18z"/>
<path d="M3878 9940 c-27 -16 -41 -74 -28 -114 15 -46 73 -69 124 -50 32 12
16 26 -23 19 -32 -5 -43 -3 -60 14 -38 38 -28 51 39 51 57 0 60 1 60 25 0 50
-65 82 -112 55z"/>
<path d="M4308 9943 c-36 -9 -18 -25 21 -18 33 5 41 3 50 -14 15 -28 16 -28
-34 -33 -53 -6 -75 -22 -75 -54 0 -45 66 -73 99 -41 11 10 14 10 18 0 13 -35
23 -5 23 67 0 68 -3 81 -19 90 -20 10 -52 11 -83 3z"/>
<path d="M5237 9932 c-18 -20 -23 -67 -8 -77 13 -7 1 -76 -16 -93 -46 -47 48
-94 122 -60 30 13 43 52 25 73 -7 8 -29 15 -49 15 -20 0 -42 4 -50 9 -19 12
-4 31 25 31 37 0 67 36 60 71 -4 22 -2 29 9 29 8 0 15 5 15 10 0 6 -26 10 -58
10 -44 0 -63 -5 -75 -18z"/>
<path d="M6350 9930 c-24 -24 -25 -49 -6 -76 10 -13 11 -23 4 -31 -6 -7 -8
-19 -5 -27 3 -8 -1 -20 -9 -26 -21 -18 -17 -58 7 -71 26 -13 103 -7 124 11 18
15 20 54 2 68 -7 6 -30 12 -52 14 -28 2 -41 8 -43 21 -3 12 3 17 20 17 40 0
68 27 68 66 0 24 5 34 15 34 8 0 15 5 15 10 0 6 -27 10 -60 10 -47 0 -64 -4
-80 -20z"/>
<path d="M6552 9943 c-16 -6 -42 -56 -42 -82 0 -33 21 -68 47 -80 35 -16 78
-14 94 5 12 15 10 16 -28 10 -34 -6 -45 -4 -62 13 -38 38 -28 51 39 51 57 0
60 1 60 25 0 47 -57 79 -108 58z"/>
<path d="M7083 9924 c-22 -22 -25 -32 -20 -72 3 -31 12 -52 27 -64 55 -44 130
-3 130 72 0 81 -82 119 -137 64z"/>
<path d="M330 9435 c0 -69 4 -125 9 -125 5 0 11 5 13 10 2 7 15 6 36 -2 43
-17 83 4 96 50 21 74 -32 139 -94 115 l-30 -11 0 44 c0 32 -4 44 -15 44 -13 0
-15 -21 -15 -125z"/>
<path d="M173 9483 c-26 -10 -12 -24 17 -18 33 7 60 -7 60 -31 0 -9 -11 -14
-30 -14 -69 0 -105 -41 -76 -85 18 -27 53 -33 87 -15 13 7 19 7 19 0 0 -5 7
-10 16 -10 25 0 16 146 -11 166 -19 14 -58 17 -82 7z"/>
<path d="M639 9471 c-20 -16 -24 -29 -24 -71 0 -43 4 -55 24 -71 28 -23 101
-23 109 0 3 10 -3 11 -27 6 -38 -8 -81 16 -81 45 0 18 7 20 60 20 56 0 60 1
60 23 0 31 -39 67 -72 67 -14 0 -36 -9 -49 -19z"/>
<path d="M1830 8515 c0 -113 7 -145 24 -116 4 5 19 4 36 -2 89 -34 141 116 58
163 -22 12 -33 12 -58 3 l-30 -11 0 44 c0 32 -4 44 -15 44 -13 0 -15 -21 -15
-125z"/>
<path d="M263 8563 c-24 -9 -13 -25 13 -19 35 9 64 -2 64 -23 0 -14 -10 -20
-40 -24 -52 -7 -70 -22 -70 -58 0 -40 38 -58 83 -41 21 8 33 9 35 2 2 -5 8
-10 13 -10 5 0 9 33 9 73 0 59 -4 77 -18 90 -18 16 -63 21 -89 10z"/>
<path d="M960 8480 c0 -53 4 -90 10 -90 6 0 10 27 10 60 0 47 4 64 20 80 44
44 70 18 70 -72 0 -54 3 -68 15 -68 12 0 15 14 15 70 0 65 2 71 25 82 41 18
55 -3 55 -83 0 -55 3 -69 15 -69 24 0 21 141 -3 163 -23 21 -65 22 -81 3 -10
-12 -16 -12 -41 2 -24 14 -34 15 -59 5 -17 -6 -31 -7 -31 -2 0 5 -4 9 -10 9
-6 0 -10 -37 -10 -90z"/>
<path d="M1533 8563 c-24 -9 -13 -25 13 -19 35 9 64 -2 64 -23 0 -14 -10 -20
-40 -24 -52 -7 -70 -22 -70 -58 0 -40 38 -58 83 -41 21 8 33 9 35 2 2 -5 8
-10 13 -10 5 0 9 33 9 74 0 54 -4 79 -16 90 -15 15 -65 20 -91 9z"/>
<path d="M2055 8545 c-54 -53 -18 -155 55 -155 19 0 40 9 55 25 54 53 18 155
-55 155 -19 0 -40 -9 -55 -25z"/>
<path d="M2463 8563 c-30 -11 -11 -24 26 -18 33 5 41 3 50 -14 15 -28 16 -28
-34 -33 -53 -6 -75 -22 -75 -54 0 -45 66 -73 99 -41 11 10 14 10 18 0 12 -34
23 -5 23 61 0 54 -4 79 -16 90 -15 15 -65 20 -91 9z"/>
<path d="M2766 8549 c-22 -17 -26 -28 -26 -69 0 -41 4 -52 26 -69 26 -21 67
-27 98 -15 31 12 17 26 -19 20 -29 -6 -39 -3 -60 18 -38 39 -32 46 41 46 l66
0 -6 28 c-14 58 -72 79 -120 41z"/>
<path d="M3253 8563 c-24 -9 -13 -25 13 -19 35 9 64 -2 64 -23 0 -14 -10 -20
-40 -24 -52 -7 -70 -22 -70 -58 0 -40 38 -58 83 -41 21 8 33 9 35 2 2 -5 8
-10 13 -10 5 0 9 33 9 73 0 59 -4 77 -18 90 -18 16 -63 21 -89 10z"/>
<path d="M3598 8556 c-24 -18 -40 -65 -33 -96 15 -60 83 -90 127 -56 43 32 45
109 5 146 -24 23 -74 26 -99 6z"/>
<path d="M4200 8480 c0 -73 3 -90 15 -90 12 0 15 14 15 70 0 59 3 71 20 80 12
6 30 8 40 5 18 -6 20 -16 20 -81 0 -59 3 -74 15 -74 12 0 15 14 15 64 0 65 14
96 45 96 31 0 45 -31 45 -96 0 -38 4 -64 10 -64 7 0 10 30 8 82 -3 81 -4 83
-31 93 -22 7 -35 6 -57 -7 -25 -14 -31 -14 -41 -2 -14 17 -43 18 -72 3 -16 -9
-22 -9 -25 0 -2 6 -8 11 -13 11 -5 0 -9 -40 -9 -90z"/>
<path d="M4530 8552 c-15 -12 -24 -33 -27 -64 -5 -40 -2 -50 20 -72 26 -26 66
-33 101 -20 29 11 17 26 -14 19 -37 -8 -80 16 -80 45 0 18 7 20 60 20 56 0 60
1 60 23 0 31 -39 67 -72 67 -14 0 -36 -8 -48 -18z"/>
<path d="M5003 8558 c-48 -23 -51 -112 -5 -148 87 -69 182 63 100 140 -24 22
-60 25 -95 8z"/>
<path d="M5395 8545 c-53 -53 -18 -155 54 -155 36 0 61 9 61 22 0 5 -13 7 -30
3 -37 -8 -80 16 -80 45 0 18 7 20 60 20 56 0 60 1 60 23 0 31 -40 67 -74 67
-15 0 -37 -10 -51 -25z"/>
<path d="M5923 8558 c-48 -23 -51 -112 -5 -148 87 -69 182 63 100 140 -24 22
-60 25 -95 8z"/>
<path d="M6520 8480 c0 -73 3 -90 15 -90 12 0 15 14 15 70 0 65 2 71 25 82 41
18 55 -3 55 -83 0 -55 3 -69 15 -69 12 0 15 14 15 64 0 65 14 96 45 96 31 0
45 -31 45 -96 0 -36 4 -64 10 -64 17 0 12 146 -6 164 -19 20 -53 20 -81 1 -18
-13 -22 -13 -33 0 -15 18 -61 20 -79 3 -11 -10 -14 -10 -18 0 -13 35 -23 2
-23 -78z"/>
<path d="M6845 8545 c-53 -53 -18 -155 54 -155 36 0 61 9 61 22 0 6 -13 8 -32
4 -38 -7 -78 15 -78 44 0 18 7 20 60 20 52 0 60 3 60 19 0 10 -9 30 -21 45
-27 34 -71 35 -104 1z"/>
<path d="M530 7675 c0 -44 -1 -44 -24 -34 -14 7 -36 9 -51 5 -54 -14 -70 -128
-22 -161 26 -18 68 -19 86 -2 11 10 14 10 18 0 3 -7 9 -13 14 -13 5 0 9 56 9
125 0 104 -2 125 -15 125 -11 0 -15 -12 -15 -45z"/>
<path d="M1792 7675 c5 -42 -3 -58 -17 -35 -11 17 -64 11 -85 -10 -15 -15 -20
-33 -20 -70 0 -76 50 -112 111 -80 13 7 19 7 19 0 0 -5 5 -10 10 -10 6 0 10
48 10 125 0 109 -2 125 -16 125 -14 0 -16 -8 -12 -45z"/>
<path d="M3270 7595 c0 -69 4 -125 9 -125 5 0 11 5 13 10 2 7 15 6 36 -2 43
-17 83 4 96 50 21 74 -32 139 -94 115 l-30 -11 0 44 c0 32 -4 44 -15 44 -13 0
-15 -21 -15 -125z"/>
<path d="M4460 7590 c0 -100 3 -120 15 -120 12 0 15 17 15 97 l0 98 63 -98
c86 -135 97 -133 97 23 0 100 -2 120 -15 120 -12 0 -15 -18 -15 -97 l-1 -98
-62 97 c-86 136 -97 134 -97 -22z"/>
<path d="M4900 7590 c0 -100 3 -120 15 -120 12 0 15 13 15 55 l0 55 60 0 60 0
0 -55 c0 -42 3 -55 15 -55 13 0 15 20 15 120 0 100 -2 120 -15 120 -12 0 -15
-13 -15 -55 l0 -55 -60 0 -60 0 0 55 c0 42 -3 55 -15 55 -12 0 -15 -20 -15
-120z"/>
<path d="M5410 7703 c-53 -20 -82 -93 -60 -157 15 -47 42 -68 93 -73 39 -5 48
-1 78 25 32 28 34 35 34 92 0 57 -2 64 -33 91 -31 28 -73 36 -112 22z m112
-62 c13 -34 4 -109 -15 -128 -8 -8 -31 -15 -52 -16 -73 -2 -113 94 -65 156 35
45 112 38 132 -12z"/>
<path d="M6050 7591 l0 -121 60 0 c51 0 65 4 85 25 31 30 31 50 3 78 -22 21
-22 23 -5 40 21 21 22 46 3 72 -10 14 -30 20 -80 23 l-66 4 0 -121z"/>
<path d="M230 7630 c-80 -80 20 -211 106 -137 38 33 38 101 0 134 -33 28 -79
30 -106 3z"/>
<path d="M910 7560 c0 -53 4 -90 10 -90 6 0 10 27 10 60 0 47 4 64 20 80 44
44 70 18 70 -72 0 -54 3 -68 15 -68 12 0 15 14 15 70 0 65 2 71 25 82 41 18
55 -3 55 -83 0 -55 3 -69 15 -69 24 0 21 141 -3 163 -23 21 -65 22 -81 3 -10
-12 -16 -12 -41 2 -24 14 -34 15 -59 5 -17 -6 -31 -7 -31 -2 0 5 -4 9 -10 9
-6 0 -10 -37 -10 -90z"/>
<path d="M2036 7629 c-22 -17 -26 -28 -26 -69 0 -41 4 -52 26 -69 52 -41 118
-18 130 44 17 90 -62 147 -130 94z"/>
<path d="M2227 7632 c-21 -23 -22 -66 -2 -82 12 -10 12 -16 4 -26 -6 -8 -9
-20 -6 -29 4 -8 2 -17 -3 -20 -6 -3 -15 -15 -20 -25 -8 -15 -6 -24 10 -40 37
-37 134 -21 146 25 9 35 -11 55 -55 55 -20 0 -42 4 -50 9 -19 12 -5 31 22 31
13 0 33 7 46 16 18 13 22 24 19 50 -3 23 0 34 9 34 7 0 13 5 13 10 0 6 -26 10
-58 10 -44 0 -63 -5 -75 -18z"/>
<path d="M2415 7625 c-53 -53 -18 -155 54 -155 36 0 61 9 61 22 0 6 -13 8 -32
4 -38 -7 -78 15 -78 44 0 18 7 20 60 20 52 0 60 3 60 19 0 10 -9 30 -21 45
-27 34 -71 35 -104 1z"/>
<path d="M2973 7643 c-24 -9 -13 -25 13 -19 35 9 64 -2 64 -23 0 -14 -10 -20
-40 -24 -52 -7 -70 -22 -70 -58 0 -40 38 -58 83 -41 21 8 33 9 35 2 2 -5 8
-10 13 -10 5 0 9 33 9 73 0 59 -4 77 -18 90 -18 16 -63 21 -89 10z"/>
<path d="M3496 7629 c-22 -17 -26 -28 -26 -69 0 -41 4 -52 26 -69 67 -53 151
9 130 94 -16 62 -80 84 -130 44z"/>
<path d="M3903 7643 c-24 -9 -13 -25 13 -19 35 9 64 -2 64 -23 0 -14 -10 -20
-40 -24 -52 -7 -70 -22 -70 -58 0 -40 38 -58 83 -41 21 8 33 9 35 2 2 -5 8
-10 13 -10 5 0 9 33 9 74 0 54 -4 79 -16 90 -15 15 -65 20 -91 9z"/>
<path d="M4199 7624 c-35 -37 -33 -98 4 -130 27 -23 68 -31 101 -18 31 12 15
22 -30 21 -35 -2 -49 3 -60 17 -27 37 -18 46 46 46 57 0 60 1 60 25 0 61 -77
86 -121 39z"/>
<path d="M4733 7643 c-24 -9 -13 -25 13 -19 36 9 64 -2 64 -25 0 -15 -7 -19
-33 -19 -45 0 -77 -25 -77 -59 0 -48 43 -66 93 -40 16 9 22 9 25 0 2 -6 8 -11
13 -11 16 0 11 133 -7 158 -15 21 -59 29 -91 15z"/>
<path d="M6288 7643 c-35 -9 -19 -25 18 -19 37 8 64 -5 64 -30 0 -9 -11 -14
-29 -14 -73 0 -113 -49 -76 -90 20 -23 64 -26 84 -7 11 10 14 10 18 0 13 -35
23 -5 23 67 0 68 -3 81 -19 90 -20 10 -52 11 -83 3z"/>
<path d="M6928 7639 c-20 -11 -26 -83 -8 -94 6 -4 7 -13 1 -23 -4 -9 -6 -23
-3 -31 2 -8 -3 -18 -12 -23 -42 -24 1 -78 62 -78 61 0 103 41 82 79 -7 15 -23
21 -58 23 -57 4 -66 28 -12 39 42 9 63 35 56 72 -4 19 -1 27 9 27 8 0 15 5 15
10 0 13 -110 12 -132 -1z"/>
<path d="M810 7215 c0 -44 -1 -44 -24 -34 -64 29 -120 -36 -97 -113 16 -53 76
-78 110 -45 11 10 14 10 18 0 3 -7 9 -13 14 -13 5 0 9 56 9 125 0 104 -2 125
-15 125 -11 0 -15 -12 -15 -45z"/>
<path d="M30 7060 c0 -112 2 -130 16 -130 13 0 15 9 12 50 -3 47 3 62 17 40 8
-13 51 -13 75 0 43 23 43 137 0 160 -26 14 -63 13 -79 -2 -11 -10 -14 -10 -18
0 -3 6 -9 12 -14 12 -5 0 -9 -58 -9 -130z"/>
<path d="M258 7180 c-22 -13 -41 -74 -33 -102 12 -39 46 -68 79 -68 38 1 62
18 76 55 30 79 -52 155 -122 115z"/>
<path d="M416 7163 c44 -176 60 -190 96 -83 l24 72 23 -72 c34 -108 51 -93 95
83 5 20 3 27 -8 27 -9 0 -20 -25 -32 -72 l-17 -73 -25 73 c-13 41 -29 72 -37
72 -8 0 -24 -31 -37 -72 l-25 -73 -17 73 c-12 47 -23 72 -32 72 -11 0 -13 -7
-8 -27z"/>
<path d="M915 7165 c-53 -53 -18 -155 54 -155 36 0 61 9 61 22 0 6 -13 8 -32
4 -38 -7 -78 15 -78 44 0 18 7 20 60 20 54 0 60 2 60 20 0 29 -44 70 -75 70
-14 0 -37 -11 -50 -25z"/>
<path d="M130 6675 c0 -69 4 -125 9 -125 5 0 11 6 14 13 4 10 7 10 18 0 20
-19 67 -15 89 7 28 28 28 112 0 140 -21 21 -74 27 -85 10 -14 -23 -25 -7 -25
35 0 25 -4 45 -10 45 -6 0 -10 -48 -10 -125z"/>
<path d="M900 6675 c0 -77 4 -125 10 -125 6 0 10 5 10 10 0 7 6 7 19 0 57 -30
111 11 111 85 0 67 -55 104 -111 75 -17 -10 -19 -7 -19 35 0 25 -4 45 -10 45
-6 0 -10 -48 -10 -125z"/>
<path d="M596 6721 c-28 -11 -4 -23 29 -15 27 7 55 -9 55 -32 0 -9 -11 -14
-29 -14 -73 0 -113 -49 -76 -90 20 -23 64 -26 84 -7 11 10 14 10 18 0 13 -35
23 -5 23 67 0 68 -3 81 -19 90 -22 11 -57 12 -85 1z"/>
<path d="M1113 6704 c-22 -22 -25 -32 -20 -72 8 -77 73 -107 131 -61 21 17 26
29 26 65 0 85 -80 125 -137 68z"/>
<path d="M1533 6723 c-26 -10 -12 -24 17 -18 33 7 60 -7 60 -31 0 -9 -11 -14
-30 -14 -70 0 -111 -50 -75 -90 20 -22 56 -26 86 -10 13 7 19 7 19 0 0 -5 7
-10 16 -10 25 0 16 146 -11 166 -19 14 -58 17 -82 7z"/>
<path d="M1825 6705 c-53 -53 -18 -155 54 -155 36 0 61 9 61 22 0 6 -13 8 -32
4 -38 -7 -78 15 -78 44 0 18 7 20 60 20 52 0 60 3 60 19 0 10 -9 30 -21 45
-27 34 -71 35 -104 1z"/>
<path d="M4320 5836 l0 -44 -29 11 c-60 22 -109 -29 -97 -103 3 -19 15 -43 27
-52 24 -20 74 -24 85 -7 4 8 9 8 17 0 23 -23 27 -7 27 114 0 104 -2 125 -15
125 -11 0 -15 -12 -15 -44z"/>
<path d="M67 5803 c-14 -38 -34 -92 -46 -120 -16 -42 -18 -53 -7 -53 8 0 21
18 30 40 15 38 18 40 61 40 43 0 46 -2 61 -40 9 -22 23 -40 31 -40 8 0 13 6
10 13 -3 6 -24 60 -48 120 -23 59 -48 107 -55 107 -6 0 -23 -30 -37 -67z"/>
<path d="M1630 5750 c0 -145 18 -163 22 -23 l3 97 62 -97 c84 -131 93 -129 93
23 0 145 -18 163 -22 23 l-3 -97 -64 97 c-35 53 -70 97 -77 97 -11 0 -14 -25
-14 -120z"/>
<path d="M240 5720 c0 -73 3 -90 15 -90 12 0 15 14 15 70 0 65 2 71 25 82 41
18 55 -3 55 -83 0 -55 3 -69 15 -69 12 0 15 14 15 64 0 65 14 96 45 96 31 0
45 -31 45 -96 0 -38 4 -64 10 -64 7 0 10 30 8 82 -3 81 -4 83 -31 93 -22 7
-35 6 -57 -7 -25 -14 -31 -14 -41 -2 -14 17 -43 18 -72 3 -16 -9 -22 -9 -25 0
-2 6 -8 11 -13 11 -5 0 -9 -40 -9 -90z"/>
<path d="M550 5720 c0 -73 3 -90 15 -90 12 0 15 14 15 70 0 65 2 71 25 82 41
18 55 -3 55 -83 0 -55 3 -69 15 -69 12 0 15 14 15 64 0 65 14 96 45 96 31 0
45 -31 45 -96 0 -38 4 -64 10 -64 7 0 10 30 8 82 -3 81 -4 83 -31 93 -22 7
-35 6 -57 -7 -25 -14 -31 -14 -41 -2 -14 17 -43 18 -72 3 -16 -9 -22 -9 -25 0
-2 6 -8 11 -13 11 -5 0 -9 -40 -9 -90z"/>
<path d="M873 5784 c-22 -22 -25 -32 -20 -72 6 -53 33 -82 79 -82 71 0 106
103 53 155 -33 33 -78 33 -112 -1z"/>
<path d="M1373 5803 c-24 -9 -13 -25 13 -19 35 9 64 -2 64 -23 0 -14 -10 -20
-40 -24 -52 -7 -70 -22 -70 -58 0 -40 38 -58 83 -41 21 8 33 9 35 2 2 -5 8
-10 13 -10 5 0 9 33 9 73 0 59 -4 77 -18 90 -18 16 -63 21 -89 10z"/>
<path d="M2600 5790 c-38 -38 -38 -102 1 -141 15 -15 30 -19 61 -17 23 2 43 9
46 16 3 10 -4 12 -31 7 -28 -6 -39 -3 -56 14 -38 38 -28 51 39 51 57 0 60 1
60 25 0 57 -79 86 -120 45z"/>
<path d="M2793 5803 c-24 -9 -13 -25 13 -19 36 9 64 -2 64 -25 0 -15 -7 -19
-33 -19 -45 0 -77 -25 -77 -59 0 -48 43 -66 93 -40 16 9 22 9 25 0 2 -6 8 -11
13 -11 16 0 11 133 -7 158 -15 21 -59 29 -91 15z"/>
<path d="M3462 5794 c-26 -18 -30 -65 -7 -84 12 -10 12 -16 4 -26 -6 -8 -9
-20 -6 -28 3 -8 -1 -20 -9 -26 -21 -18 -17 -58 7 -71 26 -13 103 -7 124 11 18
15 20 51 3 68 -7 7 -28 12 -48 12 -19 0 -41 4 -49 9 -19 12 -5 31 22 31 13 0
33 7 46 16 18 13 22 24 19 50 -3 23 0 34 9 34 7 0 13 5 13 10 0 16 -103 12
-128 -6z"/>
<path d="M890 2995 c0 -114 7 -145 25 -115 4 7 12 7 25 0 53 -29 110 13 110
80 0 68 -57 109 -111 80 -17 -10 -19 -7 -19 35 0 33 -4 45 -15 45 -13 0 -15
-21 -15 -125z"/>
<path d="M370 3030 c-38 -38 -38 -102 1 -141 15 -15 30 -19 61 -17 23 2 43 9
46 16 3 10 -4 12 -31 7 -28 -6 -39 -3 -56 14 -38 38 -28 51 39 51 57 0 60 1
60 25 0 57 -79 86 -120 45z"/>
<path d="M733 3043 c-24 -9 -13 -25 13 -19 36 9 64 -2 64 -25 0 -15 -7 -19
-33 -19 -45 0 -77 -25 -77 -59 0 -48 43 -66 93 -40 16 9 22 9 25 0 2 -6 8 -11
13 -11 5 0 9 33 9 73 0 59 -4 77 -18 90 -18 16 -63 21 -89 10z"/>
</g>
</svg>
